<?xml version="1.0" encoding="utf-8"?>
<!-- Generator: Adobe Illustrator 21.1.0, SVG Export Plug-In . SVG Version: 6.00 Build 0)  -->
<svg version="1.1" id="Layer_1" xmlns="http://www.w3.org/2000/svg" xmlns:xlink="http://www.w3.org/1999/xlink" x="0px" y="0px"
	 viewBox="0 0 94 94" style="enable-background:new 0 0 94 94;" xml:space="preserve">
<style type="text/css">
	.st0{display:none;fill:#333333;stroke:#FFFFFF;}
	.st1{display:none;fill:none;stroke:#FFFFFF;stroke-width:2.5285;stroke-miterlimit:10;}
	.st2{display:none;fill:#FFFFFF;}
	.st3{display:none;}
	.st4{display:inline;}
	.st5{clip-path:url(#SVGID_2_);fill:#FFFFFF;}
	.st6{clip-path:url(#SVGID_4_);fill:none;stroke:#717577;stroke-width:2.4692;stroke-miterlimit:10;}
	.st7{clip-path:url(#SVGID_6_);fill:#FFFFFF;}
	.st8{clip-path:url(#SVGID_8_);fill:none;stroke:#717577;stroke-width:2.4692;stroke-miterlimit:10;}
	.st9{clip-path:url(#SVGID_10_);fill:#FFFFFF;}
	.st10{clip-path:url(#SVGID_12_);fill:none;stroke:#717577;stroke-width:2.4692;stroke-miterlimit:10;}
	.st11{clip-path:url(#SVGID_14_);fill:#FFFFFF;}
	.st12{clip-path:url(#SVGID_16_);fill:none;stroke:#717577;stroke-width:2.4692;stroke-miterlimit:10;}
	.st13{clip-path:url(#SVGID_18_);fill:#FFFFFF;}
	.st14{clip-path:url(#SVGID_20_);fill:none;stroke:#717577;stroke-width:2.4692;stroke-miterlimit:10;}
	.st15{clip-path:url(#SVGID_22_);fill:#FFFFFF;}
	.st16{clip-path:url(#SVGID_24_);fill:none;stroke:#717577;stroke-width:2.4692;stroke-miterlimit:10;}
	.st17{display:none;fill:#717577;}
	.st18{clip-path:url(#SVGID_26_);}
	.st19{fill:#717577;}
	.st20{display:none;fill:#FFFFFF;stroke:#FFFFFF;}
	.st21{display:none;fill:none;stroke:#FFFFFF;stroke-width:2.4692;stroke-miterlimit:10;}
	.st22{display:none;fill:#0E1131;stroke:#FFFFFF;}
	.st23{display:none;fill:#0E1131;stroke:#FFFFFF;stroke-width:2;}
	.st24{clip-path:url(#SVGID_28_);}
	.st25{fill:#FFFFFF;}
	.st26{clip-path:url(#SVGID_30_);fill:#FFFFFF;}
	.st27{clip-path:url(#SVGID_32_);fill:none;stroke:#717577;stroke-width:2.9268;stroke-miterlimit:10;}
	.st28{clip-path:url(#SVGID_34_);fill:#FFFFFF;}
	.st29{clip-path:url(#SVGID_36_);fill:none;stroke:#717577;stroke-width:2.9268;stroke-miterlimit:10;}
	.st30{clip-path:url(#SVGID_38_);fill:#FFFFFF;}
	.st31{clip-path:url(#SVGID_40_);fill:none;stroke:#717577;stroke-width:2.9268;stroke-miterlimit:10;}
	.st32{clip-path:url(#SVGID_42_);fill:#FFFFFF;}
	.st33{clip-path:url(#SVGID_44_);fill:none;stroke:#717577;stroke-width:2.9268;stroke-miterlimit:10;}
	.st34{clip-path:url(#SVGID_46_);fill:#FFFFFF;}
	.st35{clip-path:url(#SVGID_48_);fill:none;stroke:#717577;stroke-width:2.9268;stroke-miterlimit:10;}
	.st36{clip-path:url(#SVGID_50_);fill:none;}
	.st37{clip-path:url(#SVGID_52_);fill:none;stroke:#717577;stroke-width:2.9268;stroke-miterlimit:10;}
	.st38{clip-path:url(#SVGID_54_);fill:none;}
	.st39{clip-path:url(#SVGID_56_);fill:none;stroke:#717577;stroke-width:2.9268;stroke-miterlimit:10;}
	.st40{clip-path:url(#SVGID_58_);fill:none;}
	.st41{clip-path:url(#SVGID_60_);fill:none;stroke:#717577;stroke-width:2.9268;stroke-miterlimit:10;}
	.st42{clip-path:url(#SVGID_62_);fill:#FFFFFF;}
	.st43{clip-path:url(#SVGID_64_);fill:none;stroke:#717577;stroke-width:2.9268;stroke-miterlimit:10;}
	.st44{clip-path:url(#SVGID_66_);fill:#FFFFFF;}
	.st45{clip-path:url(#SVGID_68_);fill:none;stroke:#717577;stroke-width:2.9268;stroke-miterlimit:10;}
	.st46{clip-path:url(#SVGID_70_);fill:none;}
	.st47{clip-path:url(#SVGID_72_);fill:none;stroke:#717577;stroke-width:2.9268;stroke-miterlimit:10;}
	.st48{clip-path:url(#SVGID_74_);fill:#FFFFFF;}
	.st49{clip-path:url(#SVGID_76_);fill:none;stroke:#717577;stroke-width:2.9268;stroke-miterlimit:10;}
	.st50{display:none;fill:none;stroke:#FFFFFF;stroke-width:2.9268;stroke-miterlimit:10;}
	.st51{display:none;fill:none;stroke:#FFFFFF;}
</style>
<rect x="27.5" y="23.3" class="st0" width="8" height="14.7"/>
<rect x="27.5" y="23.3" class="st1" width="8" height="14.7"/>
<path class="st0" d="M70.9,76.7H24.2V48.3l0,0c9.3-9,14.1-14.3,23.2-23.6h0.2c9,9.3,14,14.6,23.3,23.6l0,0V76.7z"/>
<path class="st1" d="M70.2,76.7H23.5V48.3l0,0c9.3-9,14.1-14.3,23.2-23.6h0.2c9,9.3,14,14.6,23.3,23.6l0,0V76.7z"/>
<polygon class="st0" points="47,19.8 18.8,48.1 23.1,52.4 47,28.5 70.9,52.4 75.2,48.1 "/>
<polygon class="st1" points="47,19.8 18.8,48.1 23.1,52.4 47,28.5 70.9,52.4 75.2,48.1 "/>
<path class="st2" d="M34.7,58.4l0.9-7.7H44v2.5h-6l-0.4,3.2c0.7-0.4,1.5-0.6,2.3-0.6c1.4,0,2.6,0.4,3.4,1.3c0.8,0.9,1.2,2.1,1.2,3.7
	c0,1-0.2,1.8-0.6,2.6c-0.4,0.8-1,1.4-1.8,1.8s-1.7,0.6-2.7,0.6c-0.9,0-1.8-0.2-2.5-0.6c-0.8-0.4-1.4-0.9-1.9-1.6
	c-0.5-0.7-0.7-1.4-0.7-2.3h3c0.1,0.6,0.3,1.1,0.7,1.5s0.9,0.5,1.5,0.5c0.7,0,1.2-0.2,1.6-0.7c0.4-0.5,0.5-1.2,0.5-2.1
	c0-0.9-0.2-1.5-0.6-2c-0.4-0.5-1-0.7-1.8-0.7c-0.7,0-1.3,0.2-1.7,0.6L37.1,59L34.7,58.4z"/>
<path class="st2" d="M46.4,53.6c0-0.9,0.3-1.7,0.9-2.3c0.6-0.6,1.4-0.9,2.4-0.9s1.8,0.3,2.4,0.9s0.9,1.3,0.9,2.3v0.7
	c0,0.9-0.3,1.7-0.9,2.2s-1.4,0.8-2.4,0.8s-1.8-0.3-2.4-0.9c-0.6-0.6-0.9-1.3-0.9-2.3C46.4,54.4,46.4,53.6,46.4,53.6z M48.4,54.5
	c0,0.4,0.1,0.8,0.4,1c0.2,0.3,0.6,0.4,0.9,0.4c0.4,0,0.7-0.1,0.9-0.4c0.2-0.3,0.3-0.6,0.3-1v-0.8c0-0.4-0.1-0.8-0.3-1
	c-0.2-0.3-0.5-0.4-0.9-0.4s-0.7,0.1-0.9,0.4c-0.2,0.3-0.4,0.6-0.4,1.1C48.4,53.7,48.4,54.5,48.4,54.5z M50.3,64.7l-1.5-0.8l7.4-11.8
	l1.5,0.8L50.3,64.7z M53.6,62.1c0-0.9,0.3-1.7,0.9-2.3c0.6-0.6,1.4-0.9,2.4-0.9s1.8,0.3,2.4,0.8c0.6,0.6,0.9,1.3,0.9,2.3v0.7
	c0,0.9-0.3,1.7-0.9,2.2c-0.6,0.6-1.4,0.9-2.4,0.9s-1.8-0.3-2.4-0.9c-0.6-0.6-0.9-1.3-0.9-2.3V62.1L53.6,62.1z M55.6,63
	c0,0.4,0.1,0.7,0.4,1c0.2,0.3,0.6,0.4,0.9,0.4c0.8,0,1.3-0.5,1.3-1.4v-0.8c0-0.4-0.1-0.8-0.4-1c-0.2-0.3-0.5-0.4-0.9-0.4
	s-0.7,0.1-0.9,0.4c-0.2,0.3-0.4,0.6-0.4,1L55.6,63L55.6,63z"/>
<g class="st3">
	<g class="st4">
		<g>
			<defs>
				<rect id="SVGID_1_" x="17.6" y="4.7" width="60" height="84.7"/>
			</defs>
			<clipPath id="SVGID_2_">
				<use xlink:href="#SVGID_1_"  style="overflow:visible;"/>
			</clipPath>
			<path class="st5" d="M35.2,14.5c-2.7-5.4-7.9-5.6-11.7-8.2c-1.3-0.8-3-0.3-3.6,1.1c-1.7,3.9-1.2,8.9,1.3,13c2.1,3.5,6,3.9,8,3.9
				h2.2c0.6,0,1.2-0.2,1.7-0.6C35.7,21.2,36.3,16.7,35.2,14.5"/>
		</g>
	</g>
	<g class="st4">
		<g>
			<defs>
				<rect id="SVGID_3_" x="17.6" y="4.7" width="60" height="84.7"/>
			</defs>
			<clipPath id="SVGID_4_">
				<use xlink:href="#SVGID_3_"  style="overflow:visible;"/>
			</clipPath>
			<path class="st6" d="M35.2,14.5c-2.7-5.4-7.9-5.6-11.7-8.2c-1.3-0.8-3-0.3-3.6,1.1c-1.7,3.9-1.2,8.9,1.3,13c2.1,3.5,6,3.9,8,3.9
				h2.2c0.6,0,1.2-0.2,1.7-0.6C35.7,21.2,36.3,16.7,35.2,14.5z"/>
		</g>
	</g>
	<g class="st4">
		<g>
			<defs>
				<rect id="SVGID_5_" x="17.6" y="4.7" width="60" height="84.7"/>
			</defs>
			<clipPath id="SVGID_6_">
				<use xlink:href="#SVGID_5_"  style="overflow:visible;"/>
			</clipPath>
			<path class="st7" d="M32.1,24.4c3.5-2.3,4.2-7.5,3-9.9c-2.7-5.4-7.9-5.6-11.7-8.2c-1.3-0.8-3-0.3-3.6,1.1
				c-1.7,3.9-1.2,8.9,1.3,13c2.1,3.5,6,3.9,8,3.9"/>
		</g>
	</g>
	<g class="st4">
		<g>
			<defs>
				<rect id="SVGID_7_" x="17.6" y="4.7" width="60" height="84.7"/>
			</defs>
			<clipPath id="SVGID_8_">
				<use xlink:href="#SVGID_7_"  style="overflow:visible;"/>
			</clipPath>
			<path class="st8" d="M32.1,24.4c3.5-2.3,4.2-7.5,3-9.9c-2.7-5.4-7.9-5.6-11.7-8.2c-1.3-0.8-3-0.3-3.6,1.1
				c-1.7,3.9-1.2,8.9,1.3,13c2.1,3.5,6,3.9,8,3.9"/>
		</g>
	</g>
	<g class="st4">
		<g>
			<defs>
				<rect id="SVGID_9_" x="17.6" y="4.7" width="60" height="84.7"/>
			</defs>
			<clipPath id="SVGID_10_">
				<use xlink:href="#SVGID_9_"  style="overflow:visible;"/>
			</clipPath>
			<path class="st9" d="M32.5,30.2c0-8.9-4.7-14.1-8.4-18.9"/>
		</g>
	</g>
	<g class="st4">
		<g>
			<defs>
				<rect id="SVGID_11_" x="17.6" y="4.7" width="60" height="84.7"/>
			</defs>
			<clipPath id="SVGID_12_">
				<use xlink:href="#SVGID_11_"  style="overflow:visible;"/>
			</clipPath>
			<path class="st10" d="M32.5,30.2c0-8.9-4.7-14.1-8.4-18.9"/>
		</g>
	</g>
	<g class="st4">
		<g>
			<defs>
				<rect id="SVGID_13_" x="17.6" y="4.7" width="60" height="84.7"/>
			</defs>
			<clipPath id="SVGID_14_">
				<use xlink:href="#SVGID_13_"  style="overflow:visible;"/>
			</clipPath>
			<rect x="29.3" y="32.8" class="st11" width="7.8" height="14.3"/>
		</g>
	</g>
	<g class="st4">
		<g>
			<defs>
				<rect id="SVGID_15_" x="17.6" y="4.7" width="60" height="84.7"/>
			</defs>
			<clipPath id="SVGID_16_">
				<use xlink:href="#SVGID_15_"  style="overflow:visible;"/>
			</clipPath>
			<rect x="29.3" y="32.8" class="st12" width="7.8" height="14.3"/>
		</g>
	</g>
	<g class="st4">
		<g>
			<defs>
				<rect id="SVGID_17_" x="17.6" y="4.7" width="60" height="84.7"/>
			</defs>
			<clipPath id="SVGID_18_">
				<use xlink:href="#SVGID_17_"  style="overflow:visible;"/>
			</clipPath>
			<path class="st13" d="M70.9,84.9H25.4V57.2l0,0c9.1-8.8,13.8-13.9,22.6-23.1h0.2C57,43.2,61.9,48.3,71,57.2l0,0L70.9,84.9
				L70.9,84.9z"/>
		</g>
	</g>
	<g class="st4">
		<g>
			<defs>
				<rect id="SVGID_19_" x="17.6" y="4.7" width="60" height="84.7"/>
			</defs>
			<clipPath id="SVGID_20_">
				<use xlink:href="#SVGID_19_"  style="overflow:visible;"/>
			</clipPath>
			<path class="st14" d="M70.9,84.9H25.4V57.2l0,0c9.1-8.8,13.8-13.9,22.6-23.1h0.2C57,43.2,61.9,48.3,71,57.2l0,0L70.9,84.9
				L70.9,84.9z"/>
		</g>
	</g>
	<g class="st4">
		<g>
			<defs>
				<rect id="SVGID_21_" x="17.6" y="4.7" width="60" height="84.7"/>
			</defs>
			<clipPath id="SVGID_22_">
				<use xlink:href="#SVGID_21_"  style="overflow:visible;"/>
			</clipPath>
			<polygon class="st15" points="48.3,29.4 20.7,56.9 25,61.2 48.3,37.8 71.6,61.2 75.8,56.9 			"/>
		</g>
	</g>
	<g class="st4">
		<g>
			<defs>
				<rect id="SVGID_23_" x="17.6" y="4.7" width="60" height="84.7"/>
			</defs>
			<clipPath id="SVGID_24_">
				<use xlink:href="#SVGID_23_"  style="overflow:visible;"/>
			</clipPath>
			<polygon class="st16" points="48.3,29.4 20.7,56.9 25,61.2 48.3,37.8 71.6,61.2 75.8,56.9 			"/>
		</g>
	</g>
</g>
<path class="st17" d="M46.3,63.5c0,0.7-0.2,1.3-0.5,1.9c-0.4,0.6-0.9,1-1.5,1.3c0.7,0.3,1.3,0.8,1.7,1.4s0.6,1.3,0.6,2.1
	c0,1.3-0.4,2.3-1.3,3.1c-0.9,0.8-2.1,1.1-3.6,1.1S39,74,38.1,73.3c-0.9-0.8-1.3-1.8-1.3-3.1c0-0.8,0.2-1.5,0.6-2.1s1-1.1,1.7-1.4
	c-0.6-0.3-1.1-0.8-1.5-1.3c-0.4-0.6-0.5-1.2-0.5-1.9c0-1.3,0.4-2.3,1.3-3c0.8-0.7,2-1.1,3.4-1.1s2.6,0.4,3.4,1.1
	C45.9,61.2,46.3,62.2,46.3,63.5z M43.7,70.1c0-0.6-0.2-1.2-0.6-1.5c-0.4-0.4-0.9-0.6-1.5-0.6s-1.1,0.2-1.5,0.6s-0.6,0.9-0.6,1.5
	s0.2,1.1,0.5,1.5c0.4,0.4,0.9,0.6,1.5,0.6s1.1-0.2,1.5-0.6C43.5,71.2,43.7,70.7,43.7,70.1z M43.4,63.6c0-0.6-0.2-1-0.5-1.4
	c-0.3-0.3-0.7-0.5-1.3-0.5c-0.5,0-1,0.2-1.3,0.5s-0.5,0.8-0.5,1.4c0,0.6,0.2,1.1,0.5,1.4c0.3,0.4,0.7,0.5,1.3,0.5s1-0.2,1.3-0.5
	S43.4,64.2,43.4,63.6z"/>
<g class="st3">
	<g class="st4">
		<g>
			<defs>
				<rect id="SVGID_25_" x="17.6" y="4.7" width="60" height="84.7"/>
			</defs>
			<clipPath id="SVGID_26_">
				<use xlink:href="#SVGID_25_"  style="overflow:visible;"/>
			</clipPath>
			<g class="st18">
				<path class="st19" d="M55.9,68c-2.2,0.4-4.1,0.5-6.2,0.5h-1.1V61h1.6v6.1c1.8,0,3.5-0.1,5.5-0.5L55.9,68z M59.9,72.6v1.3h-9.5
					v-4.3H52v3H59.9L59.9,72.6z M57.9,65.8h-3.8v-1.3h3.8v-1.4h-3.8v-1.3h3.8v-1.7h1.6v10.4h-1.6V65.8z"/>
			</g>
		</g>
	</g>
</g>
<path class="st20" d="M35.2,14.5c-2.7-5.4-7.9-5.6-11.7-8.2c-1.3-0.8-3-0.3-3.6,1.1c-1.7,3.9-1.2,8.9,1.3,13c2.1,3.5,6,3.9,8,3.9
	h2.2c0.6,0,1.2-0.2,1.7-0.6C35.7,21.2,36.3,16.7,35.2,14.5"/>
<path class="st21" d="M35.2,14.5c-2.7-5.4-7.9-5.6-11.7-8.2c-1.3-0.8-3-0.3-3.6,1.1c-1.7,3.9-1.2,8.9,1.3,13c2.1,3.5,6,3.9,8,3.9
	h2.2c0.6,0,1.2-0.2,1.7-0.6C35.7,21.2,36.3,16.7,35.2,14.5z"/>
<path class="st22" d="M32.1,24.4c3.5-2.3,4.2-7.5,3-9.9c-2.7-5.4-7.9-5.6-11.7-8.2c-1.3-0.8-3-0.3-3.6,1.1c-1.7,3.9-1.2,8.9,1.3,13
	c2.1,3.5,6,3.9,8,3.9"/>
<path class="st21" d="M32.1,24.4c3.5-2.3,4.2-7.5,3-9.9c-2.7-5.4-7.9-5.6-11.7-8.2c-1.3-0.8-3-0.3-3.6,1.1c-1.7,3.9-1.2,8.9,1.3,13
	c2.1,3.5,6,3.9,8,3.9"/>
<path class="st22" d="M32.5,30.2c0-8.9-4.7-14.1-8.4-18.9"/>
<path class="st21" d="M32.5,30.2c0-8.9-4.7-14.1-8.4-18.9"/>
<rect x="29.3" y="32.8" class="st22" width="7.8" height="14.3"/>
<rect x="29.3" y="32.8" class="st21" width="7.8" height="14.3"/>
<path class="st22" d="M70.9,84.9H25.4V57.2l0,0c9.1-8.8,13.8-13.9,22.6-23.1h0.2C57,43.2,61.9,48.3,71,57.2l0,0L70.9,84.9L70.9,84.9
	z"/>
<path class="st21" d="M70.9,84.9H25.4V57.2l0,0c9.1-8.8,13.8-13.9,22.6-23.1h0.2C57,43.2,61.9,48.3,71,57.2l0,0L70.9,84.9L70.9,84.9
	z"/>
<polygon class="st20" points="48.3,29.4 20.7,56.9 25,61.2 48.3,37.8 71.6,61.2 75.8,56.9 "/>
<polygon class="st23" points="48.3,29.4 20.7,56.9 25,61.2 48.3,37.8 71.6,61.2 75.8,56.9 "/>
<path class="st2" d="M46.3,63.5c0,0.7-0.2,1.3-0.5,1.9c-0.4,0.6-0.9,1-1.5,1.3c0.7,0.3,1.3,0.8,1.7,1.4s0.6,1.3,0.6,2.1
	c0,1.3-0.4,2.3-1.3,3.1c-0.9,0.8-2.1,1.1-3.6,1.1S39,74,38.1,73.3c-0.9-0.8-1.3-1.8-1.3-3.1c0-0.8,0.2-1.5,0.6-2.1s1-1.1,1.7-1.4
	c-0.6-0.3-1.1-0.8-1.5-1.3c-0.4-0.6-0.5-1.2-0.5-1.9c0-1.3,0.4-2.3,1.3-3c0.8-0.7,2-1.1,3.4-1.1s2.6,0.4,3.4,1.1
	C45.9,61.2,46.3,62.2,46.3,63.5z M43.7,70.1c0-0.6-0.2-1.2-0.6-1.5c-0.4-0.4-0.9-0.6-1.5-0.6s-1.1,0.2-1.5,0.6s-0.6,0.9-0.6,1.5
	s0.2,1.1,0.5,1.5c0.4,0.4,0.9,0.6,1.5,0.6s1.1-0.2,1.5-0.6C43.5,71.2,43.7,70.7,43.7,70.1z M43.4,63.6c0-0.6-0.2-1-0.5-1.4
	c-0.3-0.3-0.7-0.5-1.3-0.5c-0.5,0-1,0.2-1.3,0.5s-0.5,0.8-0.5,1.4c0,0.6,0.2,1.1,0.5,1.4c0.3,0.4,0.7,0.5,1.3,0.5s1-0.2,1.3-0.5
	S43.4,64.2,43.4,63.6z"/>
<g class="st3">
	<g class="st4">
		<g>
			<defs>
				<rect id="SVGID_27_" x="17.6" y="4.7" width="60" height="84.7"/>
			</defs>
			<clipPath id="SVGID_28_">
				<use xlink:href="#SVGID_27_"  style="overflow:visible;"/>
			</clipPath>
			<g class="st24">
				<path class="st25" d="M55.9,68c-2.2,0.4-4.1,0.5-6.2,0.5h-1.1V61h1.6v6.1c1.8,0,3.5-0.1,5.5-0.5L55.9,68z M59.9,72.6v1.3h-9.5
					v-4.3H52v3H59.9L59.9,72.6z M57.9,65.8h-3.8v-1.3h3.8v-1.4h-3.8v-1.3h3.8v-1.7h1.6v10.4h-1.6V65.8z"/>
			</g>
		</g>
	</g>
</g>
<g class="st3">
	<g class="st4">
		<g>
			<defs>
				<rect id="SVGID_29_" x="16.8" y="7.2" width="60" height="79"/>
			</defs>
			<clipPath id="SVGID_30_">
				<use xlink:href="#SVGID_29_"  style="overflow:visible;"/>
			</clipPath>
			<path class="st26" d="M72.6,16.8H21c-1.5,0-2.7,1.2-2.7,2.7V82c0,1.5,1.2,2.7,2.7,2.7h51.6c1.5,0,2.7-1.2,2.7-2.7V19.5
				C75.3,18,74.1,16.8,72.6,16.8"/>
		</g>
	</g>
	<g class="st4">
		<g>
			<defs>
				<rect id="SVGID_31_" x="16.8" y="7.2" width="60" height="79"/>
			</defs>
			<clipPath id="SVGID_32_">
				<use xlink:href="#SVGID_31_"  style="overflow:visible;"/>
			</clipPath>
			<path class="st27" d="M72.6,16.8H21c-1.5,0-2.7,1.2-2.7,2.7V82c0,1.5,1.2,2.7,2.7,2.7h51.6c1.5,0,2.7-1.2,2.7-2.7V19.5
				C75.3,18,74.1,16.8,72.6,16.8z"/>
		</g>
	</g>
	<g class="st4">
		<g>
			<defs>
				<rect id="SVGID_33_" x="16.8" y="7.2" width="60" height="79"/>
			</defs>
			<clipPath id="SVGID_34_">
				<use xlink:href="#SVGID_33_"  style="overflow:visible;"/>
			</clipPath>
			<path class="st28" d="M18.2,37.2V19.5c0-1.5,1.2-2.7,2.7-2.7h51.6c1.5,0,2.7,1.2,2.7,2.7V82c0,1.5-1.2,2.7-2.7,2.7H21
				c-1.5,0-2.7-1.2-2.7-2.7L18.2,37.2"/>
		</g>
	</g>
	<g class="st4">
		<g>
			<defs>
				<rect id="SVGID_35_" x="16.8" y="7.2" width="60" height="79"/>
			</defs>
			<clipPath id="SVGID_36_">
				<use xlink:href="#SVGID_35_"  style="overflow:visible;"/>
			</clipPath>
			<path class="st29" d="M18.2,37.2V19.5c0-1.5,1.2-2.7,2.7-2.7h51.6c1.5,0,2.7,1.2,2.7,2.7V82c0,1.5-1.2,2.7-2.7,2.7H21
				c-1.5,0-2.7-1.2-2.7-2.7L18.2,37.2"/>
		</g>
	</g>
	<g class="st4">
		<g>
			<defs>
				<rect id="SVGID_37_" x="16.8" y="7.2" width="60" height="79"/>
			</defs>
			<clipPath id="SVGID_38_">
				<use xlink:href="#SVGID_37_"  style="overflow:visible;"/>
			</clipPath>
			<rect x="23.7" y="22.2" class="st30" width="46.2" height="57.1"/>
		</g>
	</g>
	<g class="st4">
		<g>
			<defs>
				<rect id="SVGID_39_" x="16.8" y="7.2" width="60" height="79"/>
			</defs>
			<clipPath id="SVGID_40_">
				<use xlink:href="#SVGID_39_"  style="overflow:visible;"/>
			</clipPath>
			<rect x="23.7" y="22.2" class="st31" width="46.2" height="57.1"/>
		</g>
	</g>
	<g class="st4">
		<g>
			<defs>
				<rect id="SVGID_41_" x="16.8" y="7.2" width="60" height="79"/>
			</defs>
			<clipPath id="SVGID_42_">
				<use xlink:href="#SVGID_41_"  style="overflow:visible;"/>
			</clipPath>
			<polygon class="st32" points="23.7,42.6 23.7,22.2 69.9,22.2 69.9,79.3 23.7,79.3 			"/>
		</g>
	</g>
	<g class="st4">
		<g>
			<defs>
				<rect id="SVGID_43_" x="16.8" y="7.2" width="60" height="79"/>
			</defs>
			<clipPath id="SVGID_44_">
				<use xlink:href="#SVGID_43_"  style="overflow:visible;"/>
			</clipPath>
			<polyline class="st33" points="23.7,42.6 23.7,22.2 69.9,22.2 69.9,79.3 23.7,79.3 23.7,42.6 			"/>
		</g>
	</g>
	<g class="st4">
		<g>
			<defs>
				<rect id="SVGID_45_" x="16.8" y="7.2" width="60" height="79"/>
			</defs>
			<clipPath id="SVGID_46_">
				<use xlink:href="#SVGID_45_"  style="overflow:visible;"/>
			</clipPath>
			<path class="st34" d="M57.6,15.4h-5.4v-1.1c0-2.8-2.1-5.4-4.9-5.6c-3.2-0.3-6,2.2-6,5.4v1.4h-5.4c-2.3,0-4.1,1.8-4.1,4.1V25h29.9
				v-5.4C61.7,17.3,59.9,15.4,57.6,15.4"/>
		</g>
	</g>
	<g class="st4">
		<g>
			<defs>
				<rect id="SVGID_47_" x="16.8" y="7.2" width="60" height="79"/>
			</defs>
			<clipPath id="SVGID_48_">
				<use xlink:href="#SVGID_47_"  style="overflow:visible;"/>
			</clipPath>
			<path class="st35" d="M57.6,15.4h-5.4v-1.1c0-2.8-2.1-5.4-4.9-5.6c-3.2-0.3-6,2.2-6,5.4v1.4h-5.4c-2.3,0-4.1,1.8-4.1,4.1V25h29.9
				v-5.4C61.7,17.3,59.9,15.4,57.6,15.4z"/>
		</g>
	</g>
	<g class="st4">
		<g>
			<defs>
				<rect id="SVGID_49_" x="16.8" y="7.2" width="60" height="79"/>
			</defs>
			<clipPath id="SVGID_50_">
				<use xlink:href="#SVGID_49_"  style="overflow:visible;"/>
			</clipPath>
			<line class="st36" x1="46.8" y1="12.7" x2="46.8" y2="15.4"/>
		</g>
	</g>
	<g class="st4">
		<g>
			<defs>
				<rect id="SVGID_51_" x="16.8" y="7.2" width="60" height="79"/>
			</defs>
			<clipPath id="SVGID_52_">
				<use xlink:href="#SVGID_51_"  style="overflow:visible;"/>
			</clipPath>
			<line class="st37" x1="46.8" y1="12.7" x2="46.8" y2="15.4"/>
		</g>
	</g>
	<g class="st4">
		<g>
			<defs>
				<rect id="SVGID_53_" x="16.8" y="7.2" width="60" height="79"/>
			</defs>
			<clipPath id="SVGID_54_">
				<use xlink:href="#SVGID_53_"  style="overflow:visible;"/>
			</clipPath>
			<line class="st38" x1="41.3" y1="37.2" x2="60.4" y2="37.2"/>
		</g>
	</g>
	<g class="st4">
		<g>
			<defs>
				<rect id="SVGID_55_" x="16.8" y="7.2" width="60" height="79"/>
			</defs>
			<clipPath id="SVGID_56_">
				<use xlink:href="#SVGID_55_"  style="overflow:visible;"/>
			</clipPath>
			<line class="st39" x1="41.3" y1="37.2" x2="60.4" y2="37.2"/>
		</g>
	</g>
	<g class="st4">
		<g>
			<defs>
				<rect id="SVGID_57_" x="16.8" y="7.2" width="60" height="79"/>
			</defs>
			<clipPath id="SVGID_58_">
				<use xlink:href="#SVGID_57_"  style="overflow:visible;"/>
			</clipPath>
			<line class="st40" x1="41.3" y1="49.4" x2="60.4" y2="49.4"/>
		</g>
	</g>
	<g class="st4">
		<g>
			<defs>
				<rect id="SVGID_59_" x="16.8" y="7.2" width="60" height="79"/>
			</defs>
			<clipPath id="SVGID_60_">
				<use xlink:href="#SVGID_59_"  style="overflow:visible;"/>
			</clipPath>
			<line class="st41" x1="41.3" y1="49.4" x2="60.4" y2="49.4"/>
		</g>
	</g>
	<g class="st4">
		<g>
			<defs>
				<rect id="SVGID_61_" x="16.8" y="7.2" width="60" height="79"/>
			</defs>
			<clipPath id="SVGID_62_">
				<use xlink:href="#SVGID_61_"  style="overflow:visible;"/>
			</clipPath>
			<polyline class="st42" points="37.3,34.5 34.8,39.9 34.5,39.9 31.8,37.2 			"/>
		</g>
	</g>
	<g class="st4">
		<g>
			<defs>
				<rect id="SVGID_63_" x="16.8" y="7.2" width="60" height="79"/>
			</defs>
			<clipPath id="SVGID_64_">
				<use xlink:href="#SVGID_63_"  style="overflow:visible;"/>
			</clipPath>
			<polyline class="st43" points="37.3,34.5 34.8,39.9 34.5,39.9 31.8,37.2 			"/>
		</g>
	</g>
	<g class="st4">
		<g>
			<defs>
				<rect id="SVGID_65_" x="16.8" y="7.2" width="60" height="79"/>
			</defs>
			<clipPath id="SVGID_66_">
				<use xlink:href="#SVGID_65_"  style="overflow:visible;"/>
			</clipPath>
			<polyline class="st44" points="37.3,46.7 34.8,52.1 34.5,52.1 31.8,49.4 			"/>
		</g>
	</g>
	<g class="st4">
		<g>
			<defs>
				<rect id="SVGID_67_" x="16.8" y="7.2" width="60" height="79"/>
			</defs>
			<clipPath id="SVGID_68_">
				<use xlink:href="#SVGID_67_"  style="overflow:visible;"/>
			</clipPath>
			<polyline class="st45" points="37.3,46.7 34.8,52.1 34.5,52.1 31.8,49.4 			"/>
		</g>
	</g>
	<g class="st4">
		<g>
			<defs>
				<rect id="SVGID_69_" x="16.8" y="7.2" width="60" height="79"/>
			</defs>
			<clipPath id="SVGID_70_">
				<use xlink:href="#SVGID_69_"  style="overflow:visible;"/>
			</clipPath>
			<line class="st46" x1="41.3" y1="62.2" x2="60.4" y2="62.2"/>
		</g>
	</g>
	<g class="st4">
		<g>
			<defs>
				<rect id="SVGID_71_" x="16.8" y="7.2" width="60" height="79"/>
			</defs>
			<clipPath id="SVGID_72_">
				<use xlink:href="#SVGID_71_"  style="overflow:visible;"/>
			</clipPath>
			<line class="st47" x1="41.3" y1="62.2" x2="60.4" y2="62.2"/>
		</g>
	</g>
	<g class="st4">
		<g>
			<defs>
				<rect id="SVGID_73_" x="16.8" y="7.2" width="60" height="79"/>
			</defs>
			<clipPath id="SVGID_74_">
				<use xlink:href="#SVGID_73_"  style="overflow:visible;"/>
			</clipPath>
			<polyline class="st48" points="37.3,59.5 34.8,64.9 34.5,64.9 31.8,62.2 			"/>
		</g>
	</g>
	<g class="st4">
		<g>
			<defs>
				<rect id="SVGID_75_" x="16.8" y="7.2" width="60" height="79"/>
			</defs>
			<clipPath id="SVGID_76_">
				<use xlink:href="#SVGID_75_"  style="overflow:visible;"/>
			</clipPath>
			<polyline class="st49" points="37.3,59.5 34.8,64.9 34.5,64.9 31.8,62.2 			"/>
		</g>
	</g>
</g>
<path class="st20" d="M72.6,16.8H21c-1.5,0-2.7,1.2-2.7,2.7V82c0,1.5,1.2,2.7,2.7,2.7h51.6c1.5,0,2.7-1.2,2.7-2.7V19.5
	C75.3,18,74.1,16.8,72.6,16.8"/>
<path class="st50" d="M72.6,16.8H21c-1.5,0-2.7,1.2-2.7,2.7V82c0,1.5,1.2,2.7,2.7,2.7h51.6c1.5,0,2.7-1.2,2.7-2.7V19.5
	C75.3,18,74.1,16.8,72.6,16.8z"/>
<path class="st0" d="M18.2,37.2V19.5c0-1.5,1.2-2.7,2.7-2.7h51.6c1.5,0,2.7,1.2,2.7,2.7V82c0,1.5-1.2,2.7-2.7,2.7H21
	c-1.5,0-2.7-1.2-2.7-2.7L18.2,37.2"/>
<path class="st50" d="M18.2,37.2V19.5c0-1.5,1.2-2.7,2.7-2.7h51.6c1.5,0,2.7,1.2,2.7,2.7V82c0,1.5-1.2,2.7-2.7,2.7H21
	c-1.5,0-2.7-1.2-2.7-2.7L18.2,37.2"/>
<rect x="23.7" y="22.2" class="st20" width="46.2" height="57.1"/>
<rect x="23.7" y="22.2" class="st50" width="46.2" height="57.1"/>
<polygon class="st0" points="23.7,42.6 23.7,22.2 69.9,22.2 69.9,79.3 23.7,79.3 "/>
<polyline class="st50" points="23.7,42.6 23.7,22.2 69.9,22.2 69.9,79.3 23.7,79.3 23.7,42.6 "/>
<path class="st0" d="M57.6,15.4h-5.4v-1.1c0-2.8-2.1-5.4-4.9-5.6c-3.2-0.3-6,2.2-6,5.4v1.4h-5.4c-2.3,0-4.1,1.8-4.1,4.1V25h29.9
	v-5.4C61.7,17.3,59.9,15.4,57.6,15.4"/>
<path class="st50" d="M57.6,15.4h-5.4v-1.1c0-2.8-2.1-5.4-4.9-5.6c-3.2-0.3-6,2.2-6,5.4v1.4h-5.4c-2.3,0-4.1,1.8-4.1,4.1V25h29.9
	v-5.4C61.7,17.3,59.9,15.4,57.6,15.4z"/>
<line class="st51" x1="46.8" y1="12.7" x2="46.8" y2="15.4"/>
<line class="st50" x1="46.8" y1="12.7" x2="46.8" y2="15.4"/>
<line class="st51" x1="41.3" y1="37.2" x2="60.4" y2="37.2"/>
<line class="st50" x1="41.3" y1="37.2" x2="60.4" y2="37.2"/>
<line class="st51" x1="41.3" y1="49.4" x2="60.4" y2="49.4"/>
<line class="st50" x1="41.3" y1="49.4" x2="60.4" y2="49.4"/>
<polyline class="st0" points="37.3,34.5 34.8,39.9 34.5,39.9 31.8,37.2 "/>
<polyline class="st50" points="37.3,34.5 34.8,39.9 34.5,39.9 31.8,37.2 "/>
<polyline class="st0" points="37.3,46.7 34.8,52.1 34.5,52.1 31.8,49.4 "/>
<polyline class="st50" points="37.3,46.7 34.8,52.1 34.5,52.1 31.8,49.4 "/>
<line class="st51" x1="41.3" y1="62.2" x2="60.4" y2="62.2"/>
<line class="st50" x1="41.3" y1="62.2" x2="60.4" y2="62.2"/>
<polyline class="st0" points="37.3,59.5 34.8,64.9 34.5,64.9 31.8,62.2 "/>
<polyline class="st50" points="37.3,59.5 34.8,64.9 34.5,64.9 31.8,62.2 "/>
<g>
	<rect x="39.3" y="25.4" class="st25" width="11" height="2.1"/>
	<circle class="st25" cx="44.8" cy="68.4" r="2.2"/>
	<path class="st25" d="M69.8,24.6c-1.6-1.6-4.3-1.6-5.9,0l-1.5,1.5c-0.2-2.9-2.5-5.2-5.4-5.2H32.6c-3,0-5.5,2.4-5.5,5.5v41.9
		c0,3,2.4,5.5,5.5,5.5h24.3c3,0,5.5-2.4,5.5-5.5V37.9l7.4-7.4C71.4,28.9,71.4,26.2,69.8,24.6z M32.6,23.1h24.3
		c1.9,0,3.4,1.5,3.4,3.4v1.8l-1.6,1.6H29.3v-3.4C29.3,24.6,30.8,23.1,32.6,23.1z M56.9,71.7H32.6c-1.9,0-3.4-1.5-3.4-3.4V65h31v3.4
		C60.3,70.2,58.8,71.7,56.9,71.7z M60.3,62.9h-31v-31h27.3L41.7,46.8l-2.9,8.8l8.8-2.9L60.3,40V62.9z M43,49.4l2,2l-3,1L43,49.4z
		 M68.3,29L47,50.3l-2.9-2.9l21.3-21.3c0.8-0.8,2.1-0.8,2.9,0C69.1,26.9,69.1,28.2,68.3,29z"/>
</g>
</svg>
