<?xml version="1.0" encoding="utf-8"?>
<!-- Generator: Adobe Illustrator 21.1.0, SVG Export Plug-In . SVG Version: 6.00 Build 0)  -->
<svg version="1.1" id="Layer_1" xmlns="http://www.w3.org/2000/svg" xmlns:xlink="http://www.w3.org/1999/xlink" x="0px" y="0px"
	 viewBox="0 0 66 103" style="enable-background:new 0 0 66 103;" xml:space="preserve">
<style type="text/css">
	.st0{fill:#2E2A25;}
	.st1{fill:#FFFFFF;}
</style>
<g>
	<g>
		<g>
			<path class="st0" d="M31,2h3.7c9.2,0.5,18.2,5,23.7,12.4c3.6,4.7,5.7,10.4,6.1,16.3v2.2c-0.2,11.4-7.5,20.7-13.8,29.6
				c-7.1,10-13.6,20.9-15.5,33.3c-0.5,2.1,0.1,5-2.4,6c-0.6-0.5-1.3-0.8-1.7-1.5c-0.7-6.9-2.5-13.7-5.4-20c-3.3-7.3-8-14-12.7-20.5
				c-2.9-3.9-5.6-7.9-7.8-12.2c-3.5-6.4-4.8-14-3.4-21.3c1.2-5.7,4.2-11,8.3-15.1C15.7,5.8,23.2,2.5,31,2z M30.3,22.1
				c-4.4,1-8,4.8-8.4,9.3c-0.5,4.2,2,8.5,5.8,10.3c4.1,2.2,9.4,1.5,12.8-1.6c3.2-2.8,4.3-7.7,2.7-11.6
				C41.2,23.6,35.4,20.8,30.3,22.1z"/>
		</g>
	</g>
	<g>
		<path class="st1" d="M30.3,22.1c5.1-1.3,10.9,1.5,12.9,6.4c1.7,3.9,0.5,8.8-2.7,11.6c-3.4,3.1-8.8,3.8-12.8,1.6
			c-3.8-1.9-6.2-6.1-5.8-10.3C22.3,26.9,25.9,23,30.3,22.1z"/>
	</g>
</g>
</svg>
